<?xml version="1.0" standalone="no"?>
<!DOCTYPE svg PUBLIC "-//W3C//DTD SVG 20010904//EN"
 "http://www.w3.org/TR/2001/REC-SVG-20010904/DTD/svg10.dtd">
<svg version="1.0" xmlns="http://www.w3.org/2000/svg"
 width="180.000000pt" height="180.000000pt" viewBox="0 0 180.000000 180.000000"
 preserveAspectRatio="xMidYMid meet">
<metadata>
Created by potrace 1.11, written by Peter Selinger 2001-2013
</metadata>
<g transform="translate(0.000000,180.000000) scale(0.100000,-0.100000)"
fill="#000000" stroke="none">
<path d="M0 900 l0 -900 900 0 900 0 0 900 0 900 -900 0 -900 0 0 -900z m771
594 c80 -44 104 -91 273 -536 86 -225 162 -421 171 -437 21 -41 62 -71 98 -71
l30 0 -6 -50 c-8 -66 -11 -70 -55 -70 -76 1 -148 53 -191 139 -10 20 -57 141
-106 269 -49 127 -91 232 -95 232 -4 0 -11 -16 -15 -36 -6 -36 -198 -581 -208
-590 -2 -3 -36 -4 -74 -2 l-70 3 153 400 154 400 -26 70 c-54 143 -100 195
-176 195 l-38 0 0 49 c0 56 3 59 79 60 40 1 66 -6 102 -25z"/>
</g>
</svg>
