<?xml version="1.0" standalone="no"?>
<!DOCTYPE svg PUBLIC "-//W3C//DTD SVG 20010904//EN"
 "http://www.w3.org/TR/2001/REC-SVG-20010904/DTD/svg10.dtd">
<svg version="1.0" xmlns="http://www.w3.org/2000/svg"
 width="180.000000pt" height="180.000000pt" viewBox="0 0 180.000000 180.000000"
 preserveAspectRatio="xMidYMid meet">
<metadata>
Created by potrace 1.11, written by Peter Selinger 2001-2013
</metadata>
<g transform="translate(0.000000,180.000000) scale(0.100000,-0.100000)"
fill="#000000" stroke="none">
<path d="M625 1552 c-29 -7 -30 -9 -30 -67 l0 -60 46 -5 c67 -8 94 -31 133
-112 70 -145 71 -130 -32 -398 -50 -129 -120 -311 -156 -404 -37 -93 -65 -175
-62 -183 6 -14 142 -19 161 -5 9 6 129 332 200 540 12 35 25 64 29 65 5 1 45
-95 91 -214 100 -261 107 -276 153 -329 42 -50 101 -79 158 -80 53 0 66 16 68
82 1 49 -1 53 -24 56 -44 5 -76 22 -92 50 -9 15 -86 213 -172 439 -85 227
-167 435 -181 463 -61 120 -180 187 -290 162z"/>
</g>
</svg>
